<?xml version="1.0" encoding="UTF-8" standalone="no"?>
<!-- Created with Inkscape (http://www.inkscape.org/) -->

<svg
   xmlns:dc="http://purl.org/dc/elements/1.1/"
   xmlns:cc="http://creativecommons.org/ns#"
   xmlns:rdf="http://www.w3.org/1999/02/22-rdf-syntax-ns#"
   xmlns:svg="http://www.w3.org/2000/svg"
   xmlns="http://www.w3.org/2000/svg"
   xmlns:sodipodi="http://sodipodi.sourceforge.net/DTD/sodipodi-0.dtd"
   xmlns:inkscape="http://www.inkscape.org/namespaces/inkscape"
   width="125mm"
   height="75mm"
   viewBox="0 0 125 75"
   version="1.1"
   id="svg1023"
   inkscape:version="0.92.2 5c3e80d, 2017-08-06"
   sodipodi:docname="lh_logo_and_text.svg">
  <defs
     id="defs1017" />
  <sodipodi:namedview
     id="base"
     pagecolor="#ffffff"
     bordercolor="#666666"
     borderopacity="1.0"
     inkscape:pageopacity="0.0"
     inkscape:pageshadow="2"
     inkscape:zoom="2.8"
     inkscape:cx="237.81246"
     inkscape:cy="119.68206"
     inkscape:document-units="mm"
     inkscape:current-layer="g1202"
     showgrid="false"
     inkscape:pagecheckerboard="false"
     inkscape:window-width="2558"
     inkscape:window-height="1398"
     inkscape:window-x="1920"
     inkscape:window-y="40"
     inkscape:window-maximized="1" />
  <metadata
     id="metadata1020">
    <rdf:RDF>
      <cc:Work
         rdf:about="">
        <dc:format>image/svg+xml</dc:format>
        <dc:type
           rdf:resource="http://purl.org/dc/dcmitype/StillImage" />
        <dc:title></dc:title>
      </cc:Work>
    </rdf:RDF>
  </metadata>
  <g
     inkscape:label="Layer 1"
     inkscape:groupmode="layer"
     id="layer1"
     transform="translate(0,-222)">
    <g
       id="g1202">
      <g
         id="g1208"
         transform="translate(-36.568186,197.30263)">
        <g
           transform="translate(71.108205,-219.77606)"
           id="layer1-6"
           inkscape:label="Layer 1">
          <path
             inkscape:connector-curvature="0"
             id="path4773"
             d="m 22.901206,287.85937 c -3.24438,-1.72776 -10.97595,-3.24465 -16.53796,-3.24465 -1.48054,0 -2.40194,-0.0947 -2.64032,-0.27137 -0.33949,-0.2516 -0.36209,-1.35457 -0.31021,-15.14231 l 0.0559,-14.87093 3.5517,0.0265 c 5.46536,0.0408 10.92581,0.99416 14.9165,2.60445 l 1.91702,0.77354 1.21587,-0.54895 c 1.59479,-0.72003 4.49972,-1.55901 6.97617,-2.01481 1.44531,-0.26601 2.09515,-0.49024 2.37783,-0.82047 2.2046,-2.57551 4.27443,-3.84956 6.92249,-4.26102 6.9489,-1.07974 12.96384,5.62711 11.19368,12.48133 -0.94046,3.64151 -4.012,6.75504 -7.35466,7.45521 l -0.81829,0.1714 -0.0568,6.9856 c -0.0519,6.37819 -0.0893,7.00246 -0.43051,7.17954 -0.20554,0.10667 -1.97198,0.25386 -3.92541,0.3271 -6.0768,0.22783 -11.7086,1.38415 -15.11446,3.10332 -0.55841,0.28187 -1.04273,0.50817 -1.07627,0.50289 -0.0335,-0.005 -0.42158,-0.20163 -0.86233,-0.43635 z m 0.048,-15.25852 v -13.53353 l -0.59195,-0.27828 c -3.40729,-1.60177 -11.04997,-3.04427 -16.14406,-3.04708 l -1.34534,-7.4e-4 v 13.64538 13.64539 l 3.175,0.12315 c 4.93653,0.19147 10.89146,1.29091 13.61483,2.51366 0.53275,0.2392 1.04129,0.44181 1.13008,0.45024 0.0888,0.008 0.16144,-6.07475 0.16144,-13.51819 z m -6.24237,7.42981 c -0.88792,-0.22635 -3.00118,-0.59334 -4.69611,-0.81555 -1.69494,-0.2222 -3.18121,-0.50435 -3.30282,-0.627 -0.12161,-0.12265 -0.18519,-0.40434 -0.14129,-0.62597 0.0706,-0.35632 0.29099,-0.40088 1.90366,-0.38484 2.01272,0.02 5.33827,0.54801 7.5819,1.20378 1.48332,0.43355 1.80917,0.82858 1.19466,1.44834 -0.3237,0.32647 -0.54867,0.30886 -2.54,-0.19876 z m -0.10763,-5.11084 c -1.1839,-0.27298 -3.12118,-0.60621 -4.30508,-0.74053 -3.41888,-0.38787 -3.64937,-0.45619 -3.72478,-1.10405 -0.0423,-0.36345 0.0584,-0.61023 0.28462,-0.6978 0.7699302,-0.29798 9.1504,1.02199 10.24717,1.61398 0.50857,0.2745 0.52447,0.99691 0.0273,1.2403 -0.23724,0.11614 -1.1736,6.5e-4 -2.52924,-0.3119 z m -0.10762,-5.08609 c -0.88793,-0.22278 -2.92208,-0.56751 -4.52034,-0.76606 -1.59827,-0.19855 -3.02702,-0.45711 -3.175,-0.57458 -0.38284,-0.30389 -0.33307,-1.01766 0.0822,-1.17836 0.9293302,-0.35966 9.73472,1.14301 10.37979,1.77135 0.17495,0.17042 0.23361,0.46663 0.14694,0.74204 -0.17714,0.56286 -0.68862,0.56384 -2.91355,0.006 z m 0.32288,-5.0088 c -0.82873,-0.22527 -2.81445,-0.56534 -4.41272,-0.7557 -3.48179,-0.41471 -3.9289,-0.55696 -3.83546,-1.22029 0.0558,-0.39611 0.22828,-0.49979 0.9295302,-0.55878 1.6592398,-0.13955 7.8088698,0.84598 9.4173798,1.50922 0.62269,0.25676 0.7683,0.79508 0.33364,1.23346 -0.32035,0.32308 -0.55173,0.30331 -2.43237,-0.20791 z m 9.4838,20.68076 c 3.62796,-1.33428 10.03715,-2.41063 14.35428,-2.41063 h 2.10005 v -6.40427 -6.40428 h -0.77407 c -0.42574,0 -1.29784,-0.15356 -1.938,-0.34125 -1.31922,-0.38678 -1.7914,-0.9473 -1.25433,-1.48897 0.40648,-0.40995 0.20924,-0.41109 1.61292,0.009 1.83583,0.54984 4.25095,0.33863 6.04613,-0.52875 3.39701,-1.64133 5.38036,-5.4264 4.75935,-9.08283 -0.81271,-4.78511 -5.08093,-7.97149 -9.68445,-7.22979 -3.77779,0.60867 -6.37505,3.18751 -7.25281,7.20139 l -0.12855,0.58785 1.64742,0.0634 c 2.43675,0.0938 2.43926,0.14365 0.1977,3.92039 -1.03379,1.7418 -2.03409,3.2267 -2.22288,3.29976 -0.49791,0.1927 -0.88957,-0.30131 -2.81954,-3.55637 -2.09285,-3.52974 -2.08433,-3.70888 0.1763,-3.70888 h 1.48054 l 0.29257,-1.35683 c 0.27259,-1.26417 0.26626,-1.36161 -0.0927,-1.4267 -0.87795,-0.15922 -7.19628,1.72694 -8.07317,2.41001 -0.21012,0.16367 -0.26907,3.15276 -0.26907,13.64284 0,7.38829 0.0299,13.43325 0.0664,13.43325 0.0365,0 0.83566,-0.28291 1.77585,-0.62869 z m 1.90978,-5.30225 c -0.32773,-0.86134 -0.0234,-1.11451 1.93644,-1.61076 2.43275,-0.616 6.48448,-1.18597 7.8176,-1.09973 0.87225,0.0564 1.03369,0.13811 1.09207,0.55258 0.0919,0.65224 -0.40902,0.82905 -3.18969,1.12591 -1.91947,0.20491 -3.60124,0.50586 -6.93864,1.24165 -0.4207,0.0927 -0.62548,0.0329 -0.71778,-0.20965 z m 0.16621,-4.96654 c -0.3764,-0.37961 -0.3171,-0.99683 0.11775,-1.22556 0.74346,-0.39108 4.34411,-1.12277 7.14534,-1.45202 3.07166,-0.36104 3.5417,-0.27303 3.41251,0.63897 -0.0517,0.36503 -0.27357,0.48319 -1.14048,0.60746 -0.59195,0.0849 -2.19021,0.31086 -3.55169,0.50223 -2.1043,0.29579 -3.95609,0.67096 -5.39148,1.09232 -0.18316,0.0538 -0.44953,-0.0198 -0.59195,-0.1634 z m 16.5096,-12.22502 c -3.21135,-2.68064 -2.99227,-2.26771 -2.99227,-5.63993 0,-3.0316 0.14141,-3.49668 1.01211,-3.32864 0.34249,0.0661 0.39943,0.40371 0.49467,2.93337 l 0.10762,2.85867 2.26017,1.92371 c 1.74036,1.48128 2.26017,2.0465 2.26017,2.45763 0,1.06592 -0.78082,0.76656 -3.14247,-1.20481 z m -11.24006,-2.01465 c -1.05822,-0.0345 -1.97059,-0.0158 -2.02748,0.0416 -0.0927,0.0935 1.2012,2.42626 1.73069,3.12015 0.15554,0.20384 0.4757,-0.1677 1.21598,-1.41111 l 1.00485,-1.6878 z"
             style="fill:#000000;stroke-width:0.21617216" />
        </g>
        <g
           transform="translate(34.30384,-199.27898)"
           id="layer1-5"
           inkscape:label="Layer 1">
          <path
             inkscape:connector-curvature="0"
             id="path955"
             d="m 108.86356,292.76984 c 0.16542,-0.38806 0.75908,-1.71894 1.31926,-2.95752 l 1.0185,-2.25196 -2.16438,-4.53223 -2.16438,-4.53222 h 0.64183 c 0.61858,0 0.70517,0.13375 2.38937,3.6906 0.96115,2.02983 1.81215,3.6906 1.89111,3.6906 0.0789,0 0.90061,-1.66077 1.82591,-3.6906 1.48248,-3.25215 1.74261,-3.6906 2.18965,-3.6906 0.27902,0 0.50731,0.10028 0.50731,0.22284 0,0.12256 -1.47137,3.49294 -3.26972,7.48974 -3.1721,7.04995 -3.28786,7.26691 -3.87746,7.26691 -0.60386,0 -0.60583,-0.005 -0.307,-0.70556 z m -69.658704,-4.5832 c -1.133335,-0.42669 -1.775488,-0.88764 -2.379504,-1.70806 -1.952322,-2.65177 -1.007334,-6.6471 1.893228,-8.00441 3.000773,-1.40421 6.565254,1.09763 6.565254,4.60801 v 0.84108 h -3.444068 c -3.756163,0 -3.852534,0.0378 -3.089221,1.21275 0.807404,1.24279 2.695474,1.55098 4.006149,0.65393 l 0.761748,-0.52135 0.701119,0.72955 c 0.604714,0.62924 0.66147,0.77773 0.412774,1.07995 -0.912723,1.10917 -3.838569,1.70676 -5.427479,1.10855 z m 3.280673,-6.55274 c 0,-0.18452 -0.237759,-0.57529 -0.528352,-0.86837 -0.958043,-0.96623 -2.660528,-0.60031 -3.328604,0.71542 l -0.248022,0.48846 h 2.05249 c 1.707761,0 2.052488,-0.0564 2.052488,-0.33551 z m 26.639668,6.53942 c -0.442886,-0.15941 -1.059944,-0.45816 -1.371241,-0.66387 -0.554215,-0.36624 -0.55756,-0.38253 -0.160775,-0.7827 0.396786,-0.40018 0.427193,-0.39746 1.461535,0.13067 1.159103,0.59182 1.856174,0.66397 2.893069,0.29942 0.759699,-0.2671 1.103847,-0.76053 1.103847,-1.58265 0,-0.80706 -0.680737,-1.31408 -2.467229,-1.83761 -2.085051,-0.61101 -2.914127,-1.30165 -2.914127,-2.42753 0,-1.15969 0.371647,-1.87266 1.267086,-2.4308 0.953656,-0.59443 2.550595,-0.62906 3.960816,-0.0859 0.932612,0.35921 0.992352,0.42612 0.768438,0.86062 -0.133535,0.25913 -0.269697,0.50336 -0.302583,0.54275 -0.03289,0.0394 -0.313882,-0.0963 -0.624431,-0.3015 -0.346189,-0.22877 -1.015841,-0.37971 -1.730896,-0.39013 -0.947685,-0.0138 -1.268954,0.0803 -1.71421,0.50217 -0.301371,0.28554 -0.547949,0.70395 -0.547949,0.92979 0,0.878 0.43831,1.21726 2.442738,1.89075 2.269408,0.76251 2.921269,1.29977 3.082417,2.5405 0.2908,2.23898 -2.49783,3.75942 -5.146505,2.80601 z m 11.690888,-0.0713 c -1.474536,-0.75831 -1.62163,-1.19675 -1.698332,-5.06218 l -0.06862,-3.45842 h -1.399312 c -1.328018,0 -1.395808,-0.0249 -1.330527,-0.48846 0.06178,-0.43872 0.205789,-0.49505 1.414123,-0.5531 l 1.345339,-0.0646 v -1.2922 c 0,-1.23363 0.0244,-1.29221 0.538136,-1.29221 0.513797,0 0.538135,0.0585 0.538135,1.29343 v 1.29344 l 1.668221,0.0634 c 1.533719,0.0583 1.673668,0.10203 1.735786,0.54249 0.0641,0.45453 -0.0186,0.48234 -1.614406,0.54273 l -1.681973,0.0637 -0.06001,2.86852 c -0.08431,4.03039 0.323433,4.83831 2.441816,4.83831 0.645167,0 0.739377,0.0692 0.739377,0.54274 0,0.49383 -0.08243,0.5427 -0.91483,0.5424 -0.503157,-1.9e-4 -1.24697,-0.17115 -1.652921,-0.37992 z m 8.944612,0.0745 c -1.86887,-0.70148 -3.13528,-2.6147 -3.14332,-4.7487 -0.008,-2.04812 0.89771,-3.62543 2.57832,-4.4916 3.75563,-1.93562 8.01345,1.40073 7.09866,5.56238 -0.49865,2.26852 -2.17054,3.72968 -4.46171,3.89935 -0.76571,0.0567 -1.55594,-0.0277 -2.07195,-0.22143 z m 3.15841,-1.07307 c 0.94764,-0.39933 2.03623,-1.70173 2.21195,-2.64639 0.23634,-1.27055 -0.0178,-2.6325 -0.64616,-3.46342 -1.69993,-2.24778 -5.1292,-1.92549 -6.33939,0.59579 -1.57683,3.28515 1.53444,6.879 4.7736,5.51402 z m -79.708156,-6.21952 v -7.38119 h 1.291526 1.291525 v 7.38119 7.3812 h -1.291525 -1.291526 z m 6.672882,2.38804 v -4.99316 h 1.291526 1.291525 v 4.99316 4.99316 h -1.291525 -1.291526 z m 7.964407,1.08547 v -3.90769 h -1.291525 -1.291526 v -1.08547 -1.08547 h 1.265654 1.265654 l 0.09055,-1.26249 c 0.161653,-2.25393 1.643491,-3.54847 4.088474,-3.57169 0.691009,-0.007 1.304608,0.0367 1.363558,0.0962 0.05895,0.0594 0.04681,0.55229 -0.02697,1.09519 -0.134136,0.98701 -0.134244,0.98711 -1.122293,1.09943 -1.178396,0.13396 -1.758522,0.73028 -1.758522,1.80762 v 0.73578 h 1.50678 1.50678 v 1.08547 1.08547 h -1.50678 -1.50678 v 3.90769 3.90769 h -1.291525 -1.291526 z m 21.740679,-3.6906 v -7.59829 h 0.538136 0.538136 v 3.4028 3.4028 l 0.484322,-0.4449 c 1.573934,-1.44583 4.055715,-1.44799 5.685314,-0.005 1.219039,1.07948 1.364262,1.66164 1.364262,5.46891 v 3.37193 h -0.538135 -0.538136 v -3.16933 c 0,-3.55978 -0.224738,-4.39421 -1.373232,-5.09862 -1.448293,-0.88829 -3.029012,-0.69138 -4.321868,0.53836 l -0.762527,0.7253 v 3.50215 3.50214 h -0.538136 -0.538136 z m 12.964951,2.76795 0.05793,-4.83034 h 0.538136 0.538136 l 0.05793,4.83034 0.05793,4.83034 h -0.653998 -0.653998 z m 37.6198,-0.0543 v -4.88461 h 0.53814 c 0.45786,0 0.53813,0.10002 0.53813,0.67058 v 0.67058 l 0.65245,-0.55369 c 0.63019,-0.5348 1.85189,-1.00085 2.63018,-1.00335 0.25862,-8.3e-4 0.37669,0.1689 0.37669,0.54152 0,0.4167 -0.11247,0.54384 -0.48432,0.5475 -0.80764,0.008 -2.22101,0.77345 -2.71197,1.46884 -0.42628,0.60376 -0.46303,0.92454 -0.46303,4.04153 v 3.38572 h -0.53813 -0.53814 z M 20.020489,275.875 c -1.144385,-0.90787 -0.499154,-2.80647 0.953766,-2.80647 1.369149,0 2.175208,1.03308 1.703055,2.1827 -0.436851,1.06366 -1.72199,1.36539 -2.656821,0.62377 z m 42.253858,-0.2288 c -0.384618,-0.72481 0.0594,-1.4922 0.863402,-1.4922 0.957731,0 1.402093,0.95524 0.750202,1.6127 -0.486429,0.49059 -1.32246,0.42815 -1.613604,-0.1205 z"
             style="fill:#000000;stroke-width:0.21617217" />
        </g>
      </g>
    </g>
  </g>
</svg>
